<mxfile host="Electron" modified="2024-07-01T23:04:24.349Z" agent="Mozilla/5.0 (Windows NT 10.0; Win64; x64) AppleWebKit/537.36 (KHTML, like Gecko) draw.io/22.0.3 Chrome/114.0.5735.289 Electron/25.8.4 Safari/537.36" etag="LD2G5ire7CTIfJYbvZU0" version="22.0.3" type="device">
  <diagram name="Página-1" id="kpQqoO8_oqSkg4sqiHbr">
    <mxGraphModel dx="766" dy="1651" grid="1" gridSize="10" guides="1" tooltips="1" connect="1" arrows="1" fold="1" page="1" pageScale="1" pageWidth="827" pageHeight="1169" math="0" shadow="0">
      <root>
        <mxCell id="0" />
        <mxCell id="1" parent="0" />
        <mxCell id="J4AAcBv4mjMhmdr9pXqa-1" value="Persona" style="rounded=0;whiteSpace=wrap;html=1;" vertex="1" parent="1">
          <mxGeometry x="110" y="230" width="110" height="30" as="geometry" />
        </mxCell>
        <mxCell id="J4AAcBv4mjMhmdr9pXqa-2" value="&lt;u&gt;identificacion&lt;/u&gt;" style="ellipse;whiteSpace=wrap;html=1;" vertex="1" parent="1">
          <mxGeometry x="120" y="140" width="90" height="30" as="geometry" />
        </mxCell>
        <mxCell id="J4AAcBv4mjMhmdr9pXqa-3" value="&lt;font style=&quot;font-size: 9px;&quot;&gt;tipo_identificacion&lt;/font&gt;" style="ellipse;whiteSpace=wrap;html=1;" vertex="1" parent="1">
          <mxGeometry x="60" y="170" width="90" height="30" as="geometry" />
        </mxCell>
        <mxCell id="J4AAcBv4mjMhmdr9pXqa-4" value="correo" style="ellipse;whiteSpace=wrap;html=1;" vertex="1" parent="1">
          <mxGeometry x="200" y="290" width="90" height="30" as="geometry" />
        </mxCell>
        <mxCell id="J4AAcBv4mjMhmdr9pXqa-5" value="telefono" style="ellipse;whiteSpace=wrap;html=1;" vertex="1" parent="1">
          <mxGeometry x="140" y="320" width="80" height="30" as="geometry" />
        </mxCell>
        <mxCell id="J4AAcBv4mjMhmdr9pXqa-6" value="apellidos" style="ellipse;whiteSpace=wrap;html=1;" vertex="1" parent="1">
          <mxGeometry y="260" width="90" height="30" as="geometry" />
        </mxCell>
        <mxCell id="J4AAcBv4mjMhmdr9pXqa-7" value="nombre" style="ellipse;whiteSpace=wrap;html=1;" vertex="1" parent="1">
          <mxGeometry y="220" width="90" height="30" as="geometry" />
        </mxCell>
        <mxCell id="J4AAcBv4mjMhmdr9pXqa-8" value="direccion" style="ellipse;whiteSpace=wrap;html=1;" vertex="1" parent="1">
          <mxGeometry x="60" y="290" width="90" height="30" as="geometry" />
        </mxCell>
        <mxCell id="J4AAcBv4mjMhmdr9pXqa-9" value="rol" style="ellipse;whiteSpace=wrap;html=1;" vertex="1" parent="1">
          <mxGeometry x="200" y="170" width="90" height="30" as="geometry" />
        </mxCell>
        <mxCell id="J4AAcBv4mjMhmdr9pXqa-10" value="" style="endArrow=none;html=1;rounded=0;entryX=1;entryY=0.5;entryDx=0;entryDy=0;exitX=0;exitY=0.25;exitDx=0;exitDy=0;" edge="1" parent="1" source="J4AAcBv4mjMhmdr9pXqa-1" target="J4AAcBv4mjMhmdr9pXqa-7">
          <mxGeometry width="50" height="50" relative="1" as="geometry">
            <mxPoint x="60" y="450" as="sourcePoint" />
            <mxPoint x="110" y="400" as="targetPoint" />
          </mxGeometry>
        </mxCell>
        <mxCell id="J4AAcBv4mjMhmdr9pXqa-11" value="" style="endArrow=none;html=1;rounded=0;entryX=0;entryY=0.75;entryDx=0;entryDy=0;exitX=1;exitY=0;exitDx=0;exitDy=0;" edge="1" parent="1" source="J4AAcBv4mjMhmdr9pXqa-6" target="J4AAcBv4mjMhmdr9pXqa-1">
          <mxGeometry width="50" height="50" relative="1" as="geometry">
            <mxPoint x="70" y="460" as="sourcePoint" />
            <mxPoint x="120" y="410" as="targetPoint" />
          </mxGeometry>
        </mxCell>
        <mxCell id="J4AAcBv4mjMhmdr9pXqa-12" value="" style="endArrow=none;html=1;rounded=0;entryX=0.25;entryY=1;entryDx=0;entryDy=0;exitX=0.5;exitY=0;exitDx=0;exitDy=0;" edge="1" parent="1" source="J4AAcBv4mjMhmdr9pXqa-8" target="J4AAcBv4mjMhmdr9pXqa-1">
          <mxGeometry width="50" height="50" relative="1" as="geometry">
            <mxPoint x="80" y="470" as="sourcePoint" />
            <mxPoint x="130" y="420" as="targetPoint" />
          </mxGeometry>
        </mxCell>
        <mxCell id="J4AAcBv4mjMhmdr9pXqa-13" value="" style="endArrow=none;html=1;rounded=0;entryX=0.5;entryY=1;entryDx=0;entryDy=0;exitX=0.5;exitY=0;exitDx=0;exitDy=0;" edge="1" parent="1" source="J4AAcBv4mjMhmdr9pXqa-5" target="J4AAcBv4mjMhmdr9pXqa-1">
          <mxGeometry width="50" height="50" relative="1" as="geometry">
            <mxPoint x="90" y="480" as="sourcePoint" />
            <mxPoint x="140" y="430" as="targetPoint" />
          </mxGeometry>
        </mxCell>
        <mxCell id="J4AAcBv4mjMhmdr9pXqa-14" value="" style="endArrow=none;html=1;rounded=0;entryX=0.75;entryY=1;entryDx=0;entryDy=0;exitX=0.5;exitY=0;exitDx=0;exitDy=0;" edge="1" parent="1" source="J4AAcBv4mjMhmdr9pXqa-4" target="J4AAcBv4mjMhmdr9pXqa-1">
          <mxGeometry width="50" height="50" relative="1" as="geometry">
            <mxPoint x="100" y="490" as="sourcePoint" />
            <mxPoint x="150" y="440" as="targetPoint" />
          </mxGeometry>
        </mxCell>
        <mxCell id="J4AAcBv4mjMhmdr9pXqa-15" value="" style="endArrow=none;html=1;rounded=0;entryX=0.5;entryY=1;entryDx=0;entryDy=0;exitX=0.25;exitY=0;exitDx=0;exitDy=0;" edge="1" parent="1" source="J4AAcBv4mjMhmdr9pXqa-1" target="J4AAcBv4mjMhmdr9pXqa-3">
          <mxGeometry width="50" height="50" relative="1" as="geometry">
            <mxPoint x="110" y="500" as="sourcePoint" />
            <mxPoint x="160" y="450" as="targetPoint" />
          </mxGeometry>
        </mxCell>
        <mxCell id="J4AAcBv4mjMhmdr9pXqa-16" value="" style="endArrow=none;html=1;rounded=0;entryX=0.5;entryY=1;entryDx=0;entryDy=0;exitX=0.5;exitY=0;exitDx=0;exitDy=0;" edge="1" parent="1" source="J4AAcBv4mjMhmdr9pXqa-1" target="J4AAcBv4mjMhmdr9pXqa-2">
          <mxGeometry width="50" height="50" relative="1" as="geometry">
            <mxPoint x="120" y="510" as="sourcePoint" />
            <mxPoint x="170" y="460" as="targetPoint" />
          </mxGeometry>
        </mxCell>
        <mxCell id="J4AAcBv4mjMhmdr9pXqa-17" value="" style="endArrow=none;html=1;rounded=0;entryX=0.5;entryY=1;entryDx=0;entryDy=0;exitX=0.75;exitY=0;exitDx=0;exitDy=0;" edge="1" parent="1" source="J4AAcBv4mjMhmdr9pXqa-1" target="J4AAcBv4mjMhmdr9pXqa-9">
          <mxGeometry width="50" height="50" relative="1" as="geometry">
            <mxPoint x="130" y="520" as="sourcePoint" />
            <mxPoint x="180" y="470" as="targetPoint" />
          </mxGeometry>
        </mxCell>
        <mxCell id="J4AAcBv4mjMhmdr9pXqa-18" value="" style="rhombus;whiteSpace=wrap;html=1;" vertex="1" parent="1">
          <mxGeometry x="320" y="170" width="50" height="50" as="geometry" />
        </mxCell>
        <mxCell id="J4AAcBv4mjMhmdr9pXqa-19" value="Profesor" style="rounded=0;whiteSpace=wrap;html=1;" vertex="1" parent="1">
          <mxGeometry x="370" y="70" width="110" height="30" as="geometry" />
        </mxCell>
        <mxCell id="J4AAcBv4mjMhmdr9pXqa-20" value="" style="endArrow=none;html=1;rounded=0;entryX=0;entryY=1;entryDx=0;entryDy=0;exitX=1;exitY=0.25;exitDx=0;exitDy=0;" edge="1" parent="1" source="J4AAcBv4mjMhmdr9pXqa-1" target="J4AAcBv4mjMhmdr9pXqa-18">
          <mxGeometry width="50" height="50" relative="1" as="geometry">
            <mxPoint x="270" y="280" as="sourcePoint" />
            <mxPoint x="320" y="230" as="targetPoint" />
          </mxGeometry>
        </mxCell>
        <mxCell id="J4AAcBv4mjMhmdr9pXqa-21" value="" style="endArrow=none;html=1;rounded=0;entryX=0.5;entryY=1;entryDx=0;entryDy=0;exitX=1;exitY=0;exitDx=0;exitDy=0;" edge="1" parent="1" source="J4AAcBv4mjMhmdr9pXqa-18" target="J4AAcBv4mjMhmdr9pXqa-19">
          <mxGeometry width="50" height="50" relative="1" as="geometry">
            <mxPoint x="360" y="190" as="sourcePoint" />
            <mxPoint x="330" y="240" as="targetPoint" />
          </mxGeometry>
        </mxCell>
        <mxCell id="J4AAcBv4mjMhmdr9pXqa-22" value="&lt;u&gt;id_profesor&lt;/u&gt;" style="ellipse;whiteSpace=wrap;html=1;" vertex="1" parent="1">
          <mxGeometry x="310" y="20" width="90" height="30" as="geometry" />
        </mxCell>
        <mxCell id="J4AAcBv4mjMhmdr9pXqa-23" value="1" style="text;html=1;strokeColor=none;fillColor=none;align=center;verticalAlign=middle;whiteSpace=wrap;rounded=0;" vertex="1" parent="1">
          <mxGeometry x="230" y="240" width="30" height="30" as="geometry" />
        </mxCell>
        <mxCell id="J4AAcBv4mjMhmdr9pXqa-24" value="N" style="text;html=1;strokeColor=none;fillColor=none;align=center;verticalAlign=middle;whiteSpace=wrap;rounded=0;" vertex="1" parent="1">
          <mxGeometry x="310" y="230" width="30" height="30" as="geometry" />
        </mxCell>
        <mxCell id="J4AAcBv4mjMhmdr9pXqa-25" value="contraseña" style="ellipse;whiteSpace=wrap;html=1;" vertex="1" parent="1">
          <mxGeometry x="230" y="80" width="90" height="30" as="geometry" />
        </mxCell>
        <mxCell id="J4AAcBv4mjMhmdr9pXqa-26" value="usuario" style="ellipse;whiteSpace=wrap;html=1;" vertex="1" parent="1">
          <mxGeometry x="420" y="20" width="90" height="30" as="geometry" />
        </mxCell>
        <mxCell id="J4AAcBv4mjMhmdr9pXqa-27" value="" style="endArrow=none;html=1;rounded=0;entryX=1;entryY=0.5;entryDx=0;entryDy=0;exitX=0;exitY=0.5;exitDx=0;exitDy=0;" edge="1" parent="1" source="J4AAcBv4mjMhmdr9pXqa-19" target="J4AAcBv4mjMhmdr9pXqa-25">
          <mxGeometry width="50" height="50" relative="1" as="geometry">
            <mxPoint x="440" y="200" as="sourcePoint" />
            <mxPoint x="490" y="150" as="targetPoint" />
          </mxGeometry>
        </mxCell>
        <mxCell id="J4AAcBv4mjMhmdr9pXqa-28" value="" style="endArrow=none;html=1;rounded=0;entryX=1;entryY=1;entryDx=0;entryDy=0;exitX=0.25;exitY=0;exitDx=0;exitDy=0;" edge="1" parent="1" source="J4AAcBv4mjMhmdr9pXqa-19" target="J4AAcBv4mjMhmdr9pXqa-22">
          <mxGeometry width="50" height="50" relative="1" as="geometry">
            <mxPoint x="450" y="210" as="sourcePoint" />
            <mxPoint x="500" y="160" as="targetPoint" />
          </mxGeometry>
        </mxCell>
        <mxCell id="J4AAcBv4mjMhmdr9pXqa-29" value="" style="endArrow=none;html=1;rounded=0;entryX=0.5;entryY=1;entryDx=0;entryDy=0;exitX=0.75;exitY=0;exitDx=0;exitDy=0;" edge="1" parent="1" source="J4AAcBv4mjMhmdr9pXqa-19" target="J4AAcBv4mjMhmdr9pXqa-26">
          <mxGeometry width="50" height="50" relative="1" as="geometry">
            <mxPoint x="460" y="220" as="sourcePoint" />
            <mxPoint x="510" y="170" as="targetPoint" />
          </mxGeometry>
        </mxCell>
        <mxCell id="J4AAcBv4mjMhmdr9pXqa-30" value="Materia" style="rounded=0;whiteSpace=wrap;html=1;" vertex="1" parent="1">
          <mxGeometry x="620" y="70" width="110" height="30" as="geometry" />
        </mxCell>
        <mxCell id="J4AAcBv4mjMhmdr9pXqa-31" value="" style="rhombus;whiteSpace=wrap;html=1;" vertex="1" parent="1">
          <mxGeometry x="530" y="60" width="50" height="50" as="geometry" />
        </mxCell>
        <mxCell id="J4AAcBv4mjMhmdr9pXqa-32" value="hora_fin" style="ellipse;whiteSpace=wrap;html=1;" vertex="1" parent="1">
          <mxGeometry x="550" y="120" width="90" height="30" as="geometry" />
        </mxCell>
        <mxCell id="J4AAcBv4mjMhmdr9pXqa-33" value="dia" style="ellipse;whiteSpace=wrap;html=1;" vertex="1" parent="1">
          <mxGeometry x="740" width="50" height="30" as="geometry" />
        </mxCell>
        <mxCell id="J4AAcBv4mjMhmdr9pXqa-34" value="nombre" style="ellipse;whiteSpace=wrap;html=1;" vertex="1" parent="1">
          <mxGeometry x="650" y="-10" width="70" height="30" as="geometry" />
        </mxCell>
        <mxCell id="J4AAcBv4mjMhmdr9pXqa-35" value="&lt;u&gt;id_materia&lt;/u&gt;" style="ellipse;whiteSpace=wrap;html=1;" vertex="1" parent="1">
          <mxGeometry x="570" width="70" height="30" as="geometry" />
        </mxCell>
        <mxCell id="J4AAcBv4mjMhmdr9pXqa-36" value="hora_inicio" style="ellipse;whiteSpace=wrap;html=1;" vertex="1" parent="1">
          <mxGeometry x="690" y="110" width="90" height="30" as="geometry" />
        </mxCell>
        <mxCell id="J4AAcBv4mjMhmdr9pXqa-37" value="" style="endArrow=none;html=1;rounded=0;entryX=0.5;entryY=1;entryDx=0;entryDy=0;exitX=0.5;exitY=0;exitDx=0;exitDy=0;" edge="1" parent="1" source="J4AAcBv4mjMhmdr9pXqa-100" target="J4AAcBv4mjMhmdr9pXqa-87">
          <mxGeometry width="50" height="50" relative="1" as="geometry">
            <mxPoint x="460" y="260" as="sourcePoint" />
            <mxPoint x="510" y="210" as="targetPoint" />
          </mxGeometry>
        </mxCell>
        <mxCell id="J4AAcBv4mjMhmdr9pXqa-38" value="" style="endArrow=none;html=1;rounded=0;entryX=0;entryY=0.5;entryDx=0;entryDy=0;exitX=1;exitY=0.5;exitDx=0;exitDy=0;" edge="1" parent="1" source="J4AAcBv4mjMhmdr9pXqa-19" target="J4AAcBv4mjMhmdr9pXqa-31">
          <mxGeometry width="50" height="50" relative="1" as="geometry">
            <mxPoint x="470" y="270" as="sourcePoint" />
            <mxPoint x="520" y="220" as="targetPoint" />
          </mxGeometry>
        </mxCell>
        <mxCell id="J4AAcBv4mjMhmdr9pXqa-39" value="" style="endArrow=none;html=1;rounded=0;entryX=0;entryY=0.5;entryDx=0;entryDy=0;exitX=1;exitY=0.5;exitDx=0;exitDy=0;" edge="1" parent="1" source="J4AAcBv4mjMhmdr9pXqa-31" target="J4AAcBv4mjMhmdr9pXqa-30">
          <mxGeometry width="50" height="50" relative="1" as="geometry">
            <mxPoint x="480" y="280" as="sourcePoint" />
            <mxPoint x="530" y="230" as="targetPoint" />
          </mxGeometry>
        </mxCell>
        <mxCell id="J4AAcBv4mjMhmdr9pXqa-40" value="" style="endArrow=none;html=1;rounded=0;entryX=0.25;entryY=1;entryDx=0;entryDy=0;exitX=0.5;exitY=0;exitDx=0;exitDy=0;" edge="1" parent="1" source="J4AAcBv4mjMhmdr9pXqa-32" target="J4AAcBv4mjMhmdr9pXqa-30">
          <mxGeometry width="50" height="50" relative="1" as="geometry">
            <mxPoint x="490" y="290" as="sourcePoint" />
            <mxPoint x="540" y="240" as="targetPoint" />
          </mxGeometry>
        </mxCell>
        <mxCell id="J4AAcBv4mjMhmdr9pXqa-41" value="" style="endArrow=none;html=1;rounded=0;entryX=0.5;entryY=0;entryDx=0;entryDy=0;exitX=0.75;exitY=1;exitDx=0;exitDy=0;" edge="1" parent="1" source="J4AAcBv4mjMhmdr9pXqa-30" target="J4AAcBv4mjMhmdr9pXqa-36">
          <mxGeometry width="50" height="50" relative="1" as="geometry">
            <mxPoint x="500" y="300" as="sourcePoint" />
            <mxPoint x="550" y="250" as="targetPoint" />
          </mxGeometry>
        </mxCell>
        <mxCell id="J4AAcBv4mjMhmdr9pXqa-42" value="" style="endArrow=none;html=1;rounded=0;entryX=0.5;entryY=1;entryDx=0;entryDy=0;exitX=0.75;exitY=0;exitDx=0;exitDy=0;" edge="1" parent="1" source="J4AAcBv4mjMhmdr9pXqa-30" target="J4AAcBv4mjMhmdr9pXqa-33">
          <mxGeometry width="50" height="50" relative="1" as="geometry">
            <mxPoint x="510" y="310" as="sourcePoint" />
            <mxPoint x="560" y="260" as="targetPoint" />
          </mxGeometry>
        </mxCell>
        <mxCell id="J4AAcBv4mjMhmdr9pXqa-43" value="" style="endArrow=none;html=1;rounded=0;entryX=0.5;entryY=1;entryDx=0;entryDy=0;exitX=0.5;exitY=0;exitDx=0;exitDy=0;" edge="1" parent="1" source="J4AAcBv4mjMhmdr9pXqa-30" target="J4AAcBv4mjMhmdr9pXqa-34">
          <mxGeometry width="50" height="50" relative="1" as="geometry">
            <mxPoint x="520" y="320" as="sourcePoint" />
            <mxPoint x="570" y="270" as="targetPoint" />
          </mxGeometry>
        </mxCell>
        <mxCell id="J4AAcBv4mjMhmdr9pXqa-44" value="" style="endArrow=none;html=1;rounded=0;entryX=0.5;entryY=1;entryDx=0;entryDy=0;exitX=0.25;exitY=0;exitDx=0;exitDy=0;" edge="1" parent="1" source="J4AAcBv4mjMhmdr9pXqa-30" target="J4AAcBv4mjMhmdr9pXqa-35">
          <mxGeometry width="50" height="50" relative="1" as="geometry">
            <mxPoint x="530" y="330" as="sourcePoint" />
            <mxPoint x="580" y="280" as="targetPoint" />
          </mxGeometry>
        </mxCell>
        <mxCell id="J4AAcBv4mjMhmdr9pXqa-45" value="1" style="text;html=1;strokeColor=none;fillColor=none;align=center;verticalAlign=middle;whiteSpace=wrap;rounded=0;" vertex="1" parent="1">
          <mxGeometry x="740" y="370" width="30" height="30" as="geometry" />
        </mxCell>
        <mxCell id="J4AAcBv4mjMhmdr9pXqa-46" value="N" style="text;html=1;strokeColor=none;fillColor=none;align=center;verticalAlign=middle;whiteSpace=wrap;rounded=0;" vertex="1" parent="1">
          <mxGeometry x="880" y="365" width="30" height="30" as="geometry" />
        </mxCell>
        <mxCell id="J4AAcBv4mjMhmdr9pXqa-47" value="1" style="text;html=1;strokeColor=none;fillColor=none;align=center;verticalAlign=middle;whiteSpace=wrap;rounded=0;" vertex="1" parent="1">
          <mxGeometry x="480" y="50" width="30" height="30" as="geometry" />
        </mxCell>
        <mxCell id="J4AAcBv4mjMhmdr9pXqa-48" value="N" style="text;html=1;strokeColor=none;fillColor=none;align=center;verticalAlign=middle;whiteSpace=wrap;rounded=0;" vertex="1" parent="1">
          <mxGeometry x="500" y="50" width="30" height="30" as="geometry" />
        </mxCell>
        <mxCell id="J4AAcBv4mjMhmdr9pXqa-50" value="" style="rhombus;whiteSpace=wrap;html=1;" vertex="1" parent="1">
          <mxGeometry x="650" y="140" width="50" height="50" as="geometry" />
        </mxCell>
        <mxCell id="J4AAcBv4mjMhmdr9pXqa-51" value="" style="endArrow=none;html=1;rounded=0;entryX=0.5;entryY=1;entryDx=0;entryDy=0;exitX=0.5;exitY=0;exitDx=0;exitDy=0;" edge="1" parent="1" target="J4AAcBv4mjMhmdr9pXqa-50">
          <mxGeometry width="50" height="50" relative="1" as="geometry">
            <mxPoint x="675" y="220" as="sourcePoint" />
            <mxPoint x="520" y="220" as="targetPoint" />
          </mxGeometry>
        </mxCell>
        <mxCell id="J4AAcBv4mjMhmdr9pXqa-52" value="" style="endArrow=none;html=1;rounded=0;entryX=0.5;entryY=1;entryDx=0;entryDy=0;exitX=0.5;exitY=0;exitDx=0;exitDy=0;" edge="1" parent="1" source="J4AAcBv4mjMhmdr9pXqa-50" target="J4AAcBv4mjMhmdr9pXqa-30">
          <mxGeometry width="50" height="50" relative="1" as="geometry">
            <mxPoint x="480" y="280" as="sourcePoint" />
            <mxPoint x="530" y="230" as="targetPoint" />
          </mxGeometry>
        </mxCell>
        <mxCell id="J4AAcBv4mjMhmdr9pXqa-54" value="Registra" style="shape=ext;margin=3;double=1;whiteSpace=wrap;html=1;align=center;" vertex="1" parent="1">
          <mxGeometry x="625" y="220" width="100" height="40" as="geometry" />
        </mxCell>
        <mxCell id="J4AAcBv4mjMhmdr9pXqa-55" value="1" style="text;html=1;strokeColor=none;fillColor=none;align=center;verticalAlign=middle;whiteSpace=wrap;rounded=0;" vertex="1" parent="1">
          <mxGeometry x="660" y="100" width="10" height="20" as="geometry" />
        </mxCell>
        <mxCell id="J4AAcBv4mjMhmdr9pXqa-56" value="N" style="text;html=1;strokeColor=none;fillColor=none;align=center;verticalAlign=middle;whiteSpace=wrap;rounded=0;" vertex="1" parent="1">
          <mxGeometry x="660" y="125" width="10" height="20" as="geometry" />
        </mxCell>
        <mxCell id="J4AAcBv4mjMhmdr9pXqa-57" value="Estudiante" style="rounded=0;whiteSpace=wrap;html=1;" vertex="1" parent="1">
          <mxGeometry x="620" y="390" width="110" height="30" as="geometry" />
        </mxCell>
        <mxCell id="J4AAcBv4mjMhmdr9pXqa-58" value="&lt;u&gt;idestudiante&lt;/u&gt;" style="ellipse;whiteSpace=wrap;html=1;" vertex="1" parent="1">
          <mxGeometry x="555" y="440" width="90" height="30" as="geometry" />
        </mxCell>
        <mxCell id="J4AAcBv4mjMhmdr9pXqa-59" value="&lt;font style=&quot;font-size: 8px;&quot;&gt;nombre_acudiente&lt;/font&gt;" style="ellipse;whiteSpace=wrap;html=1;" vertex="1" parent="1">
          <mxGeometry x="685" y="440" width="90" height="30" as="geometry" />
        </mxCell>
        <mxCell id="J4AAcBv4mjMhmdr9pXqa-60" value="&lt;font style=&quot;font-size: 8px;&quot;&gt;telefono_acudiente&lt;/font&gt;" style="ellipse;whiteSpace=wrap;html=1;" vertex="1" parent="1">
          <mxGeometry x="625" y="480" width="90" height="30" as="geometry" />
        </mxCell>
        <mxCell id="J4AAcBv4mjMhmdr9pXqa-61" value="" style="endArrow=none;html=1;rounded=0;entryX=0.5;entryY=0;entryDx=0;entryDy=0;exitX=0.75;exitY=1;exitDx=0;exitDy=0;" edge="1" parent="1" source="J4AAcBv4mjMhmdr9pXqa-57" target="J4AAcBv4mjMhmdr9pXqa-59">
          <mxGeometry width="50" height="50" relative="1" as="geometry">
            <mxPoint x="465" y="270" as="sourcePoint" />
            <mxPoint x="515" y="220" as="targetPoint" />
          </mxGeometry>
        </mxCell>
        <mxCell id="J4AAcBv4mjMhmdr9pXqa-62" value="" style="endArrow=none;html=1;rounded=0;entryX=0.5;entryY=1;entryDx=0;entryDy=0;exitX=0.5;exitY=0;exitDx=0;exitDy=0;" edge="1" parent="1" source="J4AAcBv4mjMhmdr9pXqa-60" target="J4AAcBv4mjMhmdr9pXqa-57">
          <mxGeometry width="50" height="50" relative="1" as="geometry">
            <mxPoint x="475" y="280" as="sourcePoint" />
            <mxPoint x="525" y="230" as="targetPoint" />
          </mxGeometry>
        </mxCell>
        <mxCell id="J4AAcBv4mjMhmdr9pXqa-63" value="" style="endArrow=none;html=1;rounded=0;entryX=0.25;entryY=1;entryDx=0;entryDy=0;exitX=0.5;exitY=0;exitDx=0;exitDy=0;" edge="1" parent="1" source="J4AAcBv4mjMhmdr9pXqa-58" target="J4AAcBv4mjMhmdr9pXqa-57">
          <mxGeometry width="50" height="50" relative="1" as="geometry">
            <mxPoint x="485" y="290" as="sourcePoint" />
            <mxPoint x="535" y="240" as="targetPoint" />
          </mxGeometry>
        </mxCell>
        <mxCell id="J4AAcBv4mjMhmdr9pXqa-64" value="" style="rhombus;whiteSpace=wrap;html=1;" vertex="1" parent="1">
          <mxGeometry x="650" y="300" width="50" height="50" as="geometry" />
        </mxCell>
        <mxCell id="J4AAcBv4mjMhmdr9pXqa-65" value="1" style="text;html=1;strokeColor=none;fillColor=none;align=center;verticalAlign=middle;whiteSpace=wrap;rounded=0;" vertex="1" parent="1">
          <mxGeometry x="685" y="370" width="15" height="20" as="geometry" />
        </mxCell>
        <mxCell id="J4AAcBv4mjMhmdr9pXqa-66" value="N" style="text;html=1;strokeColor=none;fillColor=none;align=center;verticalAlign=middle;whiteSpace=wrap;rounded=0;" vertex="1" parent="1">
          <mxGeometry x="685" y="350" width="10" height="20" as="geometry" />
        </mxCell>
        <mxCell id="J4AAcBv4mjMhmdr9pXqa-67" value="" style="endArrow=none;html=1;rounded=0;entryX=0.5;entryY=1;entryDx=0;entryDy=0;exitX=0.5;exitY=0;exitDx=0;exitDy=0;" edge="1" parent="1" source="J4AAcBv4mjMhmdr9pXqa-57" target="J4AAcBv4mjMhmdr9pXqa-64">
          <mxGeometry width="50" height="50" relative="1" as="geometry">
            <mxPoint x="470" y="270" as="sourcePoint" />
            <mxPoint x="520" y="220" as="targetPoint" />
          </mxGeometry>
        </mxCell>
        <mxCell id="J4AAcBv4mjMhmdr9pXqa-68" value="" style="endArrow=none;html=1;rounded=0;entryX=0.5;entryY=1;entryDx=0;entryDy=0;exitX=0.5;exitY=0;exitDx=0;exitDy=0;" edge="1" parent="1" source="J4AAcBv4mjMhmdr9pXqa-64" target="J4AAcBv4mjMhmdr9pXqa-54">
          <mxGeometry width="50" height="50" relative="1" as="geometry">
            <mxPoint x="480" y="280" as="sourcePoint" />
            <mxPoint x="530" y="230" as="targetPoint" />
          </mxGeometry>
        </mxCell>
        <mxCell id="J4AAcBv4mjMhmdr9pXqa-69" value="" style="rhombus;whiteSpace=wrap;html=1;" vertex="1" parent="1">
          <mxGeometry x="414" y="335" width="50" height="50" as="geometry" />
        </mxCell>
        <mxCell id="J4AAcBv4mjMhmdr9pXqa-70" value="" style="endArrow=none;html=1;rounded=0;exitX=1;exitY=0.75;exitDx=0;exitDy=0;entryX=0;entryY=0.5;entryDx=0;entryDy=0;" edge="1" parent="1" source="J4AAcBv4mjMhmdr9pXqa-1" target="J4AAcBv4mjMhmdr9pXqa-69">
          <mxGeometry width="50" height="50" relative="1" as="geometry">
            <mxPoint x="470" y="270" as="sourcePoint" />
            <mxPoint x="520" y="220" as="targetPoint" />
          </mxGeometry>
        </mxCell>
        <mxCell id="J4AAcBv4mjMhmdr9pXqa-71" value="1" style="text;html=1;strokeColor=none;fillColor=none;align=center;verticalAlign=middle;whiteSpace=wrap;rounded=0;" vertex="1" parent="1">
          <mxGeometry x="390" y="320" width="30" height="30" as="geometry" />
        </mxCell>
        <mxCell id="J4AAcBv4mjMhmdr9pXqa-72" value="" style="endArrow=none;html=1;rounded=0;entryX=1;entryY=0.5;entryDx=0;entryDy=0;exitX=0.25;exitY=0;exitDx=0;exitDy=0;" edge="1" parent="1" source="J4AAcBv4mjMhmdr9pXqa-74" target="J4AAcBv4mjMhmdr9pXqa-77">
          <mxGeometry width="50" height="50" relative="1" as="geometry">
            <mxPoint x="470" y="270" as="sourcePoint" />
            <mxPoint x="520" y="220" as="targetPoint" />
          </mxGeometry>
        </mxCell>
        <mxCell id="J4AAcBv4mjMhmdr9pXqa-73" value="" style="endArrow=none;html=1;rounded=0;entryX=0;entryY=0.5;entryDx=0;entryDy=0;exitX=1;exitY=0.5;exitDx=0;exitDy=0;" edge="1" parent="1" source="J4AAcBv4mjMhmdr9pXqa-69" target="J4AAcBv4mjMhmdr9pXqa-57">
          <mxGeometry width="50" height="50" relative="1" as="geometry">
            <mxPoint x="480" y="280" as="sourcePoint" />
            <mxPoint x="530" y="230" as="targetPoint" />
          </mxGeometry>
        </mxCell>
        <mxCell id="J4AAcBv4mjMhmdr9pXqa-74" value="Tarea" style="rounded=0;whiteSpace=wrap;html=1;" vertex="1" parent="1">
          <mxGeometry x="900" y="70" width="110" height="30" as="geometry" />
        </mxCell>
        <mxCell id="J4AAcBv4mjMhmdr9pXqa-75" value="&lt;u&gt;idtarea&lt;/u&gt;" style="ellipse;whiteSpace=wrap;html=1;" vertex="1" parent="1">
          <mxGeometry x="860" width="70" height="30" as="geometry" />
        </mxCell>
        <mxCell id="J4AAcBv4mjMhmdr9pXqa-76" value="nombre" style="ellipse;whiteSpace=wrap;html=1;" vertex="1" parent="1">
          <mxGeometry x="960" y="-10" width="70" height="30" as="geometry" />
        </mxCell>
        <mxCell id="J4AAcBv4mjMhmdr9pXqa-77" value="descripcion" style="ellipse;whiteSpace=wrap;html=1;" vertex="1" parent="1">
          <mxGeometry x="810" y="30" width="70" height="30" as="geometry" />
        </mxCell>
        <mxCell id="J4AAcBv4mjMhmdr9pXqa-78" value="porcentaje" style="ellipse;whiteSpace=wrap;html=1;" vertex="1" parent="1">
          <mxGeometry x="1030" y="30" width="70" height="30" as="geometry" />
        </mxCell>
        <mxCell id="J4AAcBv4mjMhmdr9pXqa-79" value="" style="endArrow=none;html=1;rounded=0;entryX=1;entryY=1;entryDx=0;entryDy=0;exitX=0.5;exitY=0;exitDx=0;exitDy=0;" edge="1" parent="1" source="J4AAcBv4mjMhmdr9pXqa-74" target="J4AAcBv4mjMhmdr9pXqa-75">
          <mxGeometry width="50" height="50" relative="1" as="geometry">
            <mxPoint x="480" y="280" as="sourcePoint" />
            <mxPoint x="530" y="230" as="targetPoint" />
          </mxGeometry>
        </mxCell>
        <mxCell id="J4AAcBv4mjMhmdr9pXqa-80" value="" style="endArrow=none;html=1;rounded=0;entryX=0.5;entryY=1;entryDx=0;entryDy=0;exitX=0.75;exitY=0;exitDx=0;exitDy=0;" edge="1" parent="1" source="J4AAcBv4mjMhmdr9pXqa-74" target="J4AAcBv4mjMhmdr9pXqa-76">
          <mxGeometry width="50" height="50" relative="1" as="geometry">
            <mxPoint x="490" y="290" as="sourcePoint" />
            <mxPoint x="540" y="240" as="targetPoint" />
          </mxGeometry>
        </mxCell>
        <mxCell id="J4AAcBv4mjMhmdr9pXqa-81" value="" style="endArrow=none;html=1;rounded=0;entryX=0;entryY=1;entryDx=0;entryDy=0;exitX=1;exitY=0.25;exitDx=0;exitDy=0;" edge="1" parent="1" source="J4AAcBv4mjMhmdr9pXqa-74" target="J4AAcBv4mjMhmdr9pXqa-78">
          <mxGeometry width="50" height="50" relative="1" as="geometry">
            <mxPoint x="500" y="300" as="sourcePoint" />
            <mxPoint x="550" y="250" as="targetPoint" />
          </mxGeometry>
        </mxCell>
        <mxCell id="J4AAcBv4mjMhmdr9pXqa-82" value="" style="rhombus;whiteSpace=wrap;html=1;" vertex="1" parent="1">
          <mxGeometry x="790" y="60" width="50" height="50" as="geometry" />
        </mxCell>
        <mxCell id="J4AAcBv4mjMhmdr9pXqa-83" value="" style="endArrow=none;html=1;rounded=0;entryX=0;entryY=0.5;entryDx=0;entryDy=0;exitX=1;exitY=0.5;exitDx=0;exitDy=0;" edge="1" parent="1" source="J4AAcBv4mjMhmdr9pXqa-30" target="J4AAcBv4mjMhmdr9pXqa-82">
          <mxGeometry width="50" height="50" relative="1" as="geometry">
            <mxPoint x="470" y="270" as="sourcePoint" />
            <mxPoint x="520" y="220" as="targetPoint" />
          </mxGeometry>
        </mxCell>
        <mxCell id="J4AAcBv4mjMhmdr9pXqa-84" value="" style="endArrow=none;html=1;rounded=0;entryX=0;entryY=0.5;entryDx=0;entryDy=0;exitX=1;exitY=0.5;exitDx=0;exitDy=0;" edge="1" parent="1" source="J4AAcBv4mjMhmdr9pXqa-82" target="J4AAcBv4mjMhmdr9pXqa-74">
          <mxGeometry width="50" height="50" relative="1" as="geometry">
            <mxPoint x="480" y="280" as="sourcePoint" />
            <mxPoint x="530" y="230" as="targetPoint" />
          </mxGeometry>
        </mxCell>
        <mxCell id="J4AAcBv4mjMhmdr9pXqa-85" value="1" style="text;html=1;strokeColor=none;fillColor=none;align=center;verticalAlign=middle;whiteSpace=wrap;rounded=0;" vertex="1" parent="1">
          <mxGeometry x="730" y="60" width="20" height="20" as="geometry" />
        </mxCell>
        <mxCell id="J4AAcBv4mjMhmdr9pXqa-86" value="N" style="text;html=1;strokeColor=none;fillColor=none;align=center;verticalAlign=middle;whiteSpace=wrap;rounded=0;" vertex="1" parent="1">
          <mxGeometry x="770" y="60" width="20" height="20" as="geometry" />
        </mxCell>
        <mxCell id="J4AAcBv4mjMhmdr9pXqa-87" value="Nota" style="rounded=0;whiteSpace=wrap;html=1;" vertex="1" parent="1">
          <mxGeometry x="900" y="280" width="110" height="30" as="geometry" />
        </mxCell>
        <mxCell id="J4AAcBv4mjMhmdr9pXqa-88" value="" style="rhombus;whiteSpace=wrap;html=1;" vertex="1" parent="1">
          <mxGeometry x="930" y="170" width="50" height="50" as="geometry" />
        </mxCell>
        <mxCell id="J4AAcBv4mjMhmdr9pXqa-89" value="&lt;u&gt;idnota&lt;/u&gt;" style="ellipse;whiteSpace=wrap;html=1;" vertex="1" parent="1">
          <mxGeometry x="820" y="250" width="70" height="30" as="geometry" />
        </mxCell>
        <mxCell id="J4AAcBv4mjMhmdr9pXqa-90" value="nota" style="ellipse;whiteSpace=wrap;html=1;" vertex="1" parent="1">
          <mxGeometry x="1030" y="240" width="70" height="30" as="geometry" />
        </mxCell>
        <mxCell id="J4AAcBv4mjMhmdr9pXqa-91" value="comentario" style="ellipse;whiteSpace=wrap;html=1;" vertex="1" parent="1">
          <mxGeometry x="1030" y="305" width="70" height="30" as="geometry" />
        </mxCell>
        <mxCell id="J4AAcBv4mjMhmdr9pXqa-92" value="" style="endArrow=none;html=1;rounded=0;entryX=0.25;entryY=0;entryDx=0;entryDy=0;exitX=1;exitY=0.5;exitDx=0;exitDy=0;" edge="1" parent="1" source="J4AAcBv4mjMhmdr9pXqa-89" target="J4AAcBv4mjMhmdr9pXqa-87">
          <mxGeometry width="50" height="50" relative="1" as="geometry">
            <mxPoint x="470" y="270" as="sourcePoint" />
            <mxPoint x="520" y="220" as="targetPoint" />
          </mxGeometry>
        </mxCell>
        <mxCell id="J4AAcBv4mjMhmdr9pXqa-93" value="" style="endArrow=none;html=1;rounded=0;entryX=0.5;entryY=0;entryDx=0;entryDy=0;exitX=0.5;exitY=1;exitDx=0;exitDy=0;" edge="1" parent="1" source="J4AAcBv4mjMhmdr9pXqa-88" target="J4AAcBv4mjMhmdr9pXqa-87">
          <mxGeometry width="50" height="50" relative="1" as="geometry">
            <mxPoint x="480" y="280" as="sourcePoint" />
            <mxPoint x="530" y="230" as="targetPoint" />
          </mxGeometry>
        </mxCell>
        <mxCell id="J4AAcBv4mjMhmdr9pXqa-94" value="" style="endArrow=none;html=1;rounded=0;entryX=0.5;entryY=1;entryDx=0;entryDy=0;exitX=0.5;exitY=0;exitDx=0;exitDy=0;" edge="1" parent="1" source="J4AAcBv4mjMhmdr9pXqa-88" target="J4AAcBv4mjMhmdr9pXqa-74">
          <mxGeometry width="50" height="50" relative="1" as="geometry">
            <mxPoint x="490" y="290" as="sourcePoint" />
            <mxPoint x="540" y="240" as="targetPoint" />
          </mxGeometry>
        </mxCell>
        <mxCell id="J4AAcBv4mjMhmdr9pXqa-95" value="" style="endArrow=none;html=1;rounded=0;entryX=0;entryY=0.5;entryDx=0;entryDy=0;exitX=1;exitY=0.5;exitDx=0;exitDy=0;" edge="1" parent="1" source="J4AAcBv4mjMhmdr9pXqa-57" target="J4AAcBv4mjMhmdr9pXqa-100">
          <mxGeometry width="50" height="50" relative="1" as="geometry">
            <mxPoint x="470" y="270" as="sourcePoint" />
            <mxPoint x="520" y="220" as="targetPoint" />
          </mxGeometry>
        </mxCell>
        <mxCell id="J4AAcBv4mjMhmdr9pXqa-96" value="" style="endArrow=none;html=1;rounded=0;entryX=0;entryY=0.5;entryDx=0;entryDy=0;exitX=1;exitY=0.75;exitDx=0;exitDy=0;" edge="1" parent="1" source="J4AAcBv4mjMhmdr9pXqa-87" target="J4AAcBv4mjMhmdr9pXqa-91">
          <mxGeometry width="50" height="50" relative="1" as="geometry">
            <mxPoint x="480" y="280" as="sourcePoint" />
            <mxPoint x="530" y="230" as="targetPoint" />
          </mxGeometry>
        </mxCell>
        <mxCell id="J4AAcBv4mjMhmdr9pXqa-97" value="" style="endArrow=none;html=1;rounded=0;entryX=0;entryY=0.5;entryDx=0;entryDy=0;exitX=0.75;exitY=0;exitDx=0;exitDy=0;" edge="1" parent="1" source="J4AAcBv4mjMhmdr9pXqa-87" target="J4AAcBv4mjMhmdr9pXqa-90">
          <mxGeometry width="50" height="50" relative="1" as="geometry">
            <mxPoint x="490" y="290" as="sourcePoint" />
            <mxPoint x="540" y="240" as="targetPoint" />
          </mxGeometry>
        </mxCell>
        <mxCell id="J4AAcBv4mjMhmdr9pXqa-98" value="1" style="text;html=1;strokeColor=none;fillColor=none;align=center;verticalAlign=middle;whiteSpace=wrap;rounded=0;" vertex="1" parent="1">
          <mxGeometry x="960" y="100" width="30" height="30" as="geometry" />
        </mxCell>
        <mxCell id="J4AAcBv4mjMhmdr9pXqa-99" value="N" style="text;html=1;strokeColor=none;fillColor=none;align=center;verticalAlign=middle;whiteSpace=wrap;rounded=0;" vertex="1" parent="1">
          <mxGeometry x="960" y="145" width="30" height="30" as="geometry" />
        </mxCell>
        <mxCell id="J4AAcBv4mjMhmdr9pXqa-100" value="" style="rhombus;whiteSpace=wrap;html=1;" vertex="1" parent="1">
          <mxGeometry x="930" y="370" width="50" height="50" as="geometry" />
        </mxCell>
      </root>
    </mxGraphModel>
  </diagram>
</mxfile>
